#N canvas 117 41 1424 774 10;
#X obj 461 882 unpackOSC;
#X obj 461 862 o.io.slipserial;
#X msg 146 803 close;
#X obj 461 841 packOSC;
#X msg 193 861 devices;
#X floatatom 648 698 5 0 0 0 - - -, f 5;
#X obj 648 678 routeOSC /direction;
#X obj 759 698 routeOSC /flowrate;
#X obj 648 658 routeOSC /pump0;
#X floatatom 648 823 5 0 0 0 - - -, f 5;
#X obj 648 802 routeOSC /direction;
#X obj 759 822 routeOSC /flowrate;
#X obj 648 782 routeOSC /pump1;
#X floatatom 905 698 5 0 0 0 - - -, f 5;
#X obj 905 678 routeOSC /direction;
#X obj 1016 698 routeOSC /flowrate;
#X obj 905 658 routeOSC /pump2;
#X floatatom 906 824 5 0 0 0 - - -, f 5;
#X obj 906 804 routeOSC /direction;
#X obj 1017 824 routeOSC /flowrate;
#X obj 906 784 routeOSC /pump3;
#X obj 1622 57 hsl 128 30 1 20000 0 0 empty empty PUMP0 200 15 0 15
-262130 -1 -1 0 1;
#X obj 1622 109 hsl 128 30 1 20000 0 0 empty empty PUMP1 200 15 0 15
-204786 -1 -1 0 1;
#X obj 1622 161 hsl 128 30 1 20000 0 0 empty empty PUMP2 200 15 0 15
-204800 -1 -1 0 1;
#X obj 9 -50 print;
#X msg 461 733 /;
#X obj 461 773 list trim;
#X obj 1622 213 hsl 128 30 1 20000 0 0 empty empty PUMP3 200 15 0 15
-203904 -1 -1 0 1;
#X obj 1754 89 hradio 10 1 0 2 empty empty empty 0 -8 0 10 -262130
-1 -1 0;
#X obj 1622 89 hsl 128 10 1 20000 0 0 empty empty empty 0 0 0 20 -262130
-1 -1 0 1;
#X obj 1754 57 hradio 30 1 0 2 empty empty empty 0 -8 0 10 -262130
-66577 -66577 0;
#X obj 461 753 pack s f f f f f f f f;
#X obj 38 161 tgl 32 0 empty empty empty 0 0 0 12 -260097 -1 -1 1 1
;
#X obj 4 161 bng 32 250 50 0 empty empty bang_here 0 -8 0 12 -260097
-1 -1;
#X obj 461 820 spigot;
#X obj 1754 141 hradio 10 1 0 2 empty empty empty 0 -8 0 10 -204786
-1 -1 0;
#X obj 1622 141 hsl 128 10 1 20000 0 0 empty empty empty -2 -8 0 10
-204786 -1 -1 0 1;
#X obj 1754 193 hradio 10 1 0 2 empty empty empty 0 -8 0 10 -204800
-1 -1 0;
#X obj 1622 193 hsl 128 10 1 20000 0 0 empty empty empty -2 -8 0 10
-204800 -1 -1 0 1;
#X obj 1754 245 hradio 10 1 0 2 empty empty empty 0 -8 0 10 -203904
-1 -1 0;
#X obj 1622 245 hsl 128 10 1 20000 0 0 empty empty empty -2 -8 0 10
-203904 -1 -1 0 1;
#X obj 1754 109 hradio 30 1 0 2 empty empty empty 0 -8 0 10 -204786
-1 -1 0;
#X obj 1754 161 hradio 30 1 0 2 empty empty empty 0 -8 0 10 -204800
-1 -1 0;
#X obj 1754 213 hradio 30 1 0 2 empty empty empty 0 -8 0 10 -203904
-1 -1 0;
#X text 45 -56 connect this to objects for debugging \; (prints to
console window);
#X obj 117 163 tgl 12 0 empty empty X=direct_drive_mode 20 6 0 12 -1
-1 -1 0 1;
#X obj 117 177 tgl 12 0 empty empty []=bang_to_push 20 6 0 12 -1 -1
-1 0 1;
#X obj 5 646 tgl 20 0 empty empty Open/close_connection 30 10 0 18
-1 -1 -1 0 1;
#X obj 5 669 tgl 12 0 empty empty prints_to_console 20 6 0 12 -1 -1
-1 0 1;
#X obj 648 717 s dirp0;
#X obj 1776 89 r dirp0;
#X obj 905 717 s dirp2;
#X obj 906 843 s dirp3;
#X obj 727 758 s frp0;
#X obj 1824 89 r frp0;
#X obj 648 842 s dirp1;
#X obj 1776 141 r dirp1;
#X obj 1776 193 r dirp2;
#X obj 1776 245 r dirp3;
#X obj 1824 141 r frp1;
#X obj 1824 193 r frp2;
#X obj 1824 245 r frp3;
#X obj 461 713 r bang;
#X obj 1576 87 s bang;
#X obj 1576 243 s bang;
#X obj 1577 139 s bang;
#X obj 1577 191 s bang;
#X obj 1528 87 s bwfw0;
#X obj 1529 139 s bwfw1;
#X obj 1529 191 s bwfw2;
#X obj 1528 243 s bwfw3;
#X obj 477 694 r bwfw0;
#X obj 509 675 r bwfw1;
#X obj 541 656 r bwfw2;
#X obj 573 637 r bwfw3;
#X obj 1503 106 s flow0;
#X floatatom 1407 104 12 0 0 2 flowrate(micL/h) - -, f 12;
#X obj 1503 87 int;
#X floatatom 1408 156 12 0 0 2 flowrate(micL/h) - -, f 12;
#X obj 1504 139 int;
#X obj 1504 158 s flow1;
#X floatatom 1408 208 12 0 0 2 flowrate(micL/h) - -, f 12;
#X obj 1504 191 int;
#X obj 1504 210 s flow2;
#X floatatom 1407 260 12 0 0 2 flowrate(micL/h) - -, f 12;
#X obj 1503 243 int;
#X obj 1503 262 s flow3;
#X obj 8 878 s operation;
#X obj 548 841 r operation;
#X obj 493 733 r inVal0;
#X obj 525 713 r inVal1;
#X obj 557 694 r inVal2;
#X obj 590 675 r inVal3;
#X obj 1405 24 tgl 20 0 empty empty Control_Pumps 30 10 0 18 -1 -1
-1 0 1;
#X obj 1405 47 tgl 12 0 empty empty manually 20 6 0 12 -1 -1 -1 0 1
;
#X obj 417 824 r data;
#X floatatom 703 365 8 0 0 1 - - -, f 8;
#X obj 703 403 s inVal0;
#X obj 703 384 int;
#X obj 703 345 expr 561069 * ($f2 / 2) * ($f2 / 2) / $f1;
#X obj 703 325 r flow0;
#X obj 883 305 r diameter0;
#X floatatom 703 463 8 0 0 1 - - -, f 8;
#X obj 703 482 int;
#X obj 703 443 expr 561069 * ($f2 / 2) * ($f2 / 2) / $f1;
#X floatatom 957 365 8 0 0 1 - - -, f 8;
#X obj 957 384 int;
#X obj 957 345 expr 561069 * ($f2 / 2) * ($f2 / 2) / $f1;
#X floatatom 957 463 8 0 0 1 - - -, f 8;
#X obj 957 482 int;
#X obj 957 443 expr 561069 * ($f2 / 2) * ($f2 / 2) / $f1;
#X obj 883 403 r diameter1;
#X obj 1137 305 r diameter2;
#X obj 1137 403 r diameter3;
#X obj 703 423 r flow1;
#X obj 957 325 r flow2;
#X obj 957 423 r flow3;
#X obj 703 501 s inVal1;
#X obj 957 403 s inVal2;
#X obj 957 501 s inVal3;
#X text 1222 351 delayUS=time between steps (in microseconds) delayUS=(3600*10E6*pi*thread_size*r*r)/
(micro_steps*steps_per_revolution*flowrate_in_uL_per_h) this system:
-thread_size= 0.3175 mm -micro_steps= 16 -steps_per_revolution= 400
(0.9 degrees) delayUS=inVal=561069*r*r/flowrate;
#X obj 828 720 r diameter0;
#X floatatom 648 758 12 0 0 1 - - -, f 12;
#X floatatom 648 883 12 0 0 1 - - -, f 12;
#X obj 828 845 r diameter1;
#X obj 727 883 s frp1;
#X floatatom 906 758 12 0 0 1 - - -, f 12;
#X obj 985 758 s frp2;
#X obj 1086 720 r diameter2;
#X floatatom 907 884 12 0 0 1 - - -, f 12;
#X obj 986 884 s frp3;
#X obj 1087 846 r diameter3;
#X obj 703 285 tgl 20 0 empty empty Calculate_Stepping-times 30 10
0 18 -1 -1 -1 0 1;
#X obj 703 308 tgl 12 0 empty empty in_microseconds 20 6 0 12 -1 -1
-1 0 1;
#X obj 1221 326 tgl 12 0 empty empty Calculation 20 6 0 12 -1 -1 -1
0 1;
#X obj 625 634 tgl 20 0 empty empty Communication_to_and_from_microcontroller
30 10 0 18 -1 -1 -1 0 1;
#X obj 648 739 expr 561069 * ($f2 / 2) * ($f2 / 2) / $f1;
#X obj 648 864 expr 561069 * ($f2 / 2) * ($f2 / 2) / $f1;
#X obj 906 739 expr 561069 * ($f2 / 2) * ($f2 / 2) / $f1;
#X obj 907 865 expr 561069 * ($f2 / 2) * ($f2 / 2) / $f1;
#X obj 230 193 s push;
#X obj 633 -133 tgl 20 0 empty empty Set_Syringe_Diameters 30 10 0
18 -1 -1 -1 0 1;
#X obj 633 -110 tgl 12 0 empty empty in_mm 20 6 0 12 -1 -1 -1 0 1;
#X obj 633 -73 route 0 1 2 3 4 5 6 7;
#X msg 633 -28 1.46;
#X floatatom 633 155 5 0 0 0 - - -, f 5;
#X msg 669 -29 set 1.46mm_(SGE_100micL);
#X obj 633 -93 r radioP0;
#X obj 707 174 s atomP0;
#X obj 633 174 s diameter0;
#X msg 633 -8 2.3;
#X msg 633 11 4.78;
#X msg 633 30 7.28;
#X msg 669 29 set 7.28mm_(SGE_2.5mL);
#X msg 633 107 1000;
#X msg 669 106 set 1000mm_(undefined);
#X msg 633 126 1000;
#X msg 669 125 set 1000mm_(undefined);
#X obj 825 -75 route 0 1 2 3 4 5 6 7;
#X msg 825 -30 1.46;
#X floatatom 825 153 5 0 0 0 - - -, f 5;
#X msg 861 -31 set 1.46mm_(SGE_100micL);
#X msg 825 -10 2.3;
#X msg 825 9 4.78;
#X msg 861 8 set 4.78mm_(BD_1mL);
#X msg 825 28 7.28;
#X msg 861 27 set 7.28mm_(SGE_2.5mL);
#X msg 825 105 1000;
#X msg 861 104 set 1000mm_(undefined);
#X msg 825 124 1000;
#X msg 861 123 set 1000mm_(undefined);
#X obj 825 -95 r radioP1;
#X obj 825 172 s diameter1;
#X obj 899 172 s atomP1;
#X obj 1017 -77 route 0 1 2 3 4 5 6 7;
#X msg 1017 -32 1.46;
#X floatatom 1017 151 5 0 0 0 - - -, f 5;
#X msg 1053 -33 set 1.46mm_(SGE_100micL);
#X msg 1017 -12 2.3;
#X msg 1017 7 4.78;
#X msg 1053 6 set 4.78mm_(BD_1mL);
#X msg 1017 26 7.28;
#X msg 1053 25 set 7.28mm_(SGE_2.5mL);
#X msg 1017 103 1000;
#X msg 1053 102 set 1000mm_(undefined);
#X msg 1017 122 1000;
#X msg 1053 121 set 1000mm_(undefined);
#X obj 1017 -97 r radioP2;
#X obj 1017 170 s diameter2;
#X obj 1091 170 s atomP2;
#X obj 1209 -79 route 0 1 2 3 4 5 6 7;
#X msg 1209 -34 1.46;
#X floatatom 1209 149 5 0 0 0 - - -, f 5;
#X msg 1245 -35 set 1.46mm_(SGE_100micL);
#X msg 1209 -14 2.3;
#X msg 1209 5 4.78;
#X msg 1245 4 set 4.78mm_(BD_1mL);
#X msg 1209 24 7.28;
#X msg 1245 23 set 7.28mm_(SGE_2.5mL);
#X msg 1209 101 1000;
#X msg 1245 100 set 1000mm_(undefined);
#X msg 1209 120 1000;
#X msg 1245 119 set 1000mm_(undefined);
#X obj 1209 -99 r radioP3;
#X obj 1209 168 s diameter3;
#X obj 1283 168 s atomP3;
#X obj 345 56 hradio 20 1 0 8 empty empty Pump0 0 -8 0 15 -257985 -1
-1 0;
#X symbolatom 345 78 30 0 0 0 - - -, f 30;
#X obj 507 56 s radioP0;
#X obj 568 61 r atomP0;
#X obj 345 110 hradio 20 1 0 8 empty empty Pump1 0 -8 0 15 -204786
-1 -1 0;
#X symbolatom 345 132 30 0 0 0 - - -, f 30;
#X obj 507 110 s radioP1;
#X obj 568 115 r atomP1;
#X obj 344 164 hradio 20 1 0 8 empty empty Pump2 0 -8 0 15 -204800
-1 -1 0;
#X symbolatom 344 186 30 0 0 0 - - -, f 30;
#X obj 506 164 s radioP2;
#X obj 567 169 r atomP2;
#X obj 347 -77 hradio 20 1 0 8 empty empty Pump3 0 -8 0 15 -203904
-1 -1 0;
#X symbolatom 347 -55 30 0 0 0 - - -, f 30;
#X obj 509 -77 s radioP3;
#X obj 570 -72 r atomP3;
#X obj 345 5 tgl 20 0 empty empty Set_Syringe_Diameters 30 10 0 18
-1 -1 -1 0 1;
#X obj 345 28 tgl 12 0 empty empty in_mm 20 6 0 12 -1 -1 -1 0 1;
#X obj 345 -31 loadbang;
#X obj 366 790 tgl 30 0 empty empty empty 0 0 0 12 -260097 -1 -1 1
1;
#X obj 366 701 bng 32 250 50 0 empty empty push_settings 0 -8 0 12
-260097 -1 -1;
#X obj 398 750 delay 100;
#X obj 398 770 delay 200;
#X obj 366 668 r push;
#X obj 366 855 s pushback;
#X obj 273 193 r pushback;
#X obj 284 773 r directdrive;
#X obj 81 161 tgl 32 0 empty empty Mode 0 -8 0 12 -4032 -1 -1 1 1;
#X obj 247 145 s directdrive;
#X floatatom 883 324 8 0 0 0 - - -, f 8;
#X floatatom 1137 422 8 0 0 0 - - -, f 8;
#X floatatom 883 422 8 0 0 0 - - -, f 8;
#X floatatom 1137 324 8 0 0 0 - - -, f 8;
#X obj 8 712 hradio 20 1 0 5 empty empty empty 0 -8 0 10 -260097 -1
-1 0;
#X msg 8 758 open 0;
#X msg 8 818 open 3;
#X msg 8 798 open 2;
#X msg 8 778 open 1;
#X msg 56 757 set open0;
#X msg 56 816 set open3;
#X msg 56 797 set open2;
#X msg 56 777 set open1;
#X obj 56 855 s atomopenport;
#X obj 144 91 r atomopenport;
#X symbolatom 3 108 10 0 0 0 - - -, f 10;
#X obj 8 691 r deviceopen;
#X obj 144 71 s deviceopen;
#X obj 3 86 hradio 20 1 0 5 empty empty open_channel 0 -8 0 12 -260097
-1 -1 0;
#X obj 4 19 tgl 20 0 empty empty Open/close_connection 30 10 0 18 -1
-1 -1 0 1;
#X obj 107 86 bng 20 250 50 0 empty empty close 0 -8 0 12 -260097 -1
-1;
#X obj 146 761 r close;
#X obj 235 91 s close;
#X obj 146 780 bng 20 250 50 0 empty empty empty 0 -8 0 12 -260097
-1 -1;
#X obj 193 838 bng 20 250 50 0 empty empty empty 0 -8 0 12 -260097
-1 -1;
#X obj 193 819 r devices;
#X obj 4 53 bng 20 250 50 0 empty empty devices_(prints_to_console)
0 -8 0 12 -260097 -1 -1;
#X obj 27 54 s devices;
#X obj 3 126 tgl 20 0 empty empty Transfer_Settings 30 10 0 18 -1 -1
-1 0 1;
#X obj 180 198 bng 20 250 50 0 empty empty all_off 25 8 0 12 -260097
-1 -1;
#X obj 4 196 tgl 20 0 empty empty Control_Pumps 30 10 0 18 -1 -1 -1
0 1;
#X obj 1655 12 r FLRP0;
#X obj 1705 12 r FLRP1;
#X obj 1753 12 r FLRP2;
#X obj 1801 12 r FLRP3;
#X obj 1647 35 r DIR_P0;
#X obj 1701 35 r DIR_P1;
#X obj 1755 35 r DIR_P2;
#X obj 1809 35 r DIR_P3;
#X obj 107 558 s FLRP0;
#X obj 107 577 s FLRP1;
#X obj 107 597 s FLRP2;
#X obj 107 619 s FLRP3;
#X obj 564 560 s DIR_P0;
#X obj 564 579 s DIR_P1;
#X obj 564 598 s DIR_P2;
#X obj 564 617 s DIR_P3;
#X obj 111 218 hsl 450 30 1 5000 0 0 empty empty PUMP0 200 15 0 15
-262130 -1 -1 0 1;
#X obj 111 267 hsl 450 30 1 1000 0 0 empty empty PUMP1 200 15 0 15
-204786 -1 -1 0 1;
#X obj 111 316 hsl 450 30 1 1000 0 0 empty empty PUMP2 200 15 0 15
-204800 -1 -1 0 1;
#X obj 110 510 hsl 450 30 1 1000 0 0 empty empty PUMP3 200 15 0 15
-203904 -1 -1 0 1;
#X obj 565 250 hradio 10 1 0 2 empty empty empty 0 -8 0 10 -262130
-1 -1 0;
#X obj 111 250 hsl 450 10 1 5000 0 0 empty empty empty 0 0 0 20 -262130
-1 -1 0 1;
#X obj 565 218 hradio 30 1 0 2 empty empty empty 0 -8 0 10 -262130
-66577 -66577 0;
#X obj 565 299 hradio 10 1 0 2 empty empty empty 0 -8 0 10 -204786
-1 -1 0;
#X obj 111 299 hsl 450 10 1 1000 0 0 empty empty empty -2 -8 0 10 -204786
-1 -1 0 1;
#X obj 565 348 hradio 10 1 0 2 empty empty empty 0 -8 0 10 -204800
-1 -1 0;
#X obj 111 348 hsl 450 10 1 1000 0 0 empty empty empty -2 -8 0 10 -204800
-1 -1 0 1;
#X obj 564 542 hradio 10 1 0 2 empty empty empty 0 -8 0 10 -203904
-1 -1 0;
#X obj 110 542 hsl 450 10 1 1000 0 0 empty empty empty -2 -8 0 10 -203904
-1 -1 0 1;
#X obj 565 267 hradio 30 1 0 2 empty empty empty 0 -8 0 10 -204786
-1 -1 0;
#X obj 565 316 hradio 30 1 0 2 empty empty empty 0 -8 0 10 -204800
-1 -1 0;
#X obj 564 510 hradio 30 1 0 2 empty empty empty 0 -8 0 10 -203904
-1 -1 0;
#X obj 587 250 r dirp0;
#X obj 635 250 r frp0;
#X obj 587 299 r dirp1;
#X obj 587 348 r dirp2;
#X obj 586 542 r dirp3;
#X obj 635 299 r frp1;
#X obj 635 348 r frp2;
#X obj 634 542 r frp3;
#X obj 63 248 outlet;
#X obj 64 297 outlet;
#X obj 64 346 outlet;
#X obj 63 540 outlet;
#X msg 669 -9 set 2.3mm_(SGE_250micL);
#X msg 861 -11 set 2.3mm_(SGE_250micL);
#X msg 1053 -13 set 2.3mm_(SGE_250micL);
#X msg 1245 -15 set 2.3mm_(SGE_250micL);
#X obj 107 -19 loadbang;
#X msg 80 218 1;
#X obj 635 201 inlet;
#X obj 635 272 inlet;
#X obj 635 321 inlet;
#X obj 634 514 inlet;
#X obj 248 125 loadbang;
#X msg 861 46 set 12.07mm_(BD_5mL);
#X msg 1053 44 set 12.07mm_(BD_5mL);
#X msg 1245 42 set 12.07mm_(BD_5mL);
#X msg 633 68 9;
#X msg 825 66 9;
#X msg 1017 64 9;
#X msg 1209 62 9;
#X msg 669 67 set 9mm_(Terumo_3mL);
#X msg 669 86 set 12.07mm_(BD_5mL);
#X msg 633 87 12.07;
#X msg 633 49 4.78;
#X msg 669 48 set 4.78mm_(Terumo_1mL);
#X msg 825 47 4.78;
#X msg 1017 45 4.78;
#X msg 1209 43 4.78;
#X msg 825 85 12.07;
#X msg 1017 83 12.07;
#X msg 1209 81 12.07;
#X msg 861 65 set 9mm_(Terumo_3mL);
#X msg 1053 63 set 9mm_(Terumo_3mL);
#X msg 1245 61 set 9mm_(Terumo_3mL);
#X msg 861 84 set 12.07mm_(BD_5mL);
#X msg 1053 82 set 12.07mm_(BD_5mL);
#X msg 1245 80 set 12.07mm_(BD_5mL);
#X msg 669 10 set 4.78mm_(BD_1mL);
#X obj 8 736 route 0 1 2 3 4;
#X msg 56 836 set open4;
#X msg 8 837 open 4;
#X connect 0 0 8 0;
#X connect 1 0 0 0;
#X connect 2 0 87 0;
#X connect 3 0 1 0;
#X connect 4 0 87 0;
#X connect 5 0 49 0;
#X connect 6 0 5 0;
#X connect 6 1 7 0;
#X connect 7 0 136 0;
#X connect 8 0 6 0;
#X connect 8 1 12 0;
#X connect 9 0 55 0;
#X connect 10 0 9 0;
#X connect 10 1 11 0;
#X connect 11 0 137 0;
#X connect 12 0 10 0;
#X connect 12 1 16 0;
#X connect 13 0 51 0;
#X connect 14 0 13 0;
#X connect 14 1 15 0;
#X connect 15 0 138 0;
#X connect 16 0 14 0;
#X connect 16 1 20 0;
#X connect 17 0 52 0;
#X connect 18 0 17 0;
#X connect 18 1 19 0;
#X connect 19 0 139 0;
#X connect 20 0 18 0;
#X connect 21 0 63 0;
#X connect 21 0 77 0;
#X connect 22 0 65 0;
#X connect 22 0 79 0;
#X connect 23 0 66 0;
#X connect 23 0 82 0;
#X connect 25 0 31 0;
#X connect 26 0 34 0;
#X connect 27 0 64 0;
#X connect 27 0 85 0;
#X connect 30 0 63 0;
#X connect 30 0 67 0;
#X connect 31 0 26 0;
#X connect 33 0 140 0;
#X connect 34 0 3 0;
#X connect 41 0 65 0;
#X connect 41 0 68 0;
#X connect 42 0 66 0;
#X connect 42 0 69 0;
#X connect 43 0 64 0;
#X connect 43 0 70 0;
#X connect 47 0 48 0;
#X connect 50 0 28 0;
#X connect 54 0 29 0;
#X connect 56 0 35 0;
#X connect 57 0 37 0;
#X connect 58 0 39 0;
#X connect 59 0 36 0;
#X connect 60 0 38 0;
#X connect 61 0 40 0;
#X connect 62 0 25 0;
#X connect 71 0 31 1;
#X connect 72 0 31 3;
#X connect 73 0 31 5;
#X connect 74 0 31 7;
#X connect 76 0 75 0;
#X connect 77 0 76 0;
#X connect 78 0 80 0;
#X connect 79 0 78 0;
#X connect 81 0 83 0;
#X connect 82 0 81 0;
#X connect 84 0 86 0;
#X connect 85 0 84 0;
#X connect 88 0 1 1;
#X connect 89 0 31 2;
#X connect 90 0 31 4;
#X connect 91 0 31 6;
#X connect 92 0 31 8;
#X connect 93 0 94 0;
#X connect 95 0 3 0;
#X connect 96 0 98 0;
#X connect 98 0 97 0;
#X connect 99 0 96 0;
#X connect 100 0 99 0;
#X connect 101 0 235 0;
#X connect 102 0 103 0;
#X connect 103 0 117 0;
#X connect 104 0 102 0;
#X connect 105 0 106 0;
#X connect 106 0 118 0;
#X connect 107 0 105 0;
#X connect 108 0 109 0;
#X connect 109 0 119 0;
#X connect 110 0 108 0;
#X connect 111 0 237 0;
#X connect 112 0 238 0;
#X connect 113 0 236 0;
#X connect 114 0 104 0;
#X connect 115 0 107 0;
#X connect 116 0 110 0;
#X connect 121 0 136 1;
#X connect 122 0 53 0;
#X connect 123 0 125 0;
#X connect 124 0 137 1;
#X connect 126 0 127 0;
#X connect 128 0 138 1;
#X connect 129 0 130 0;
#X connect 131 0 139 1;
#X connect 132 0 133 0;
#X connect 136 0 122 0;
#X connect 137 0 123 0;
#X connect 138 0 126 0;
#X connect 139 0 129 0;
#X connect 141 0 142 0;
#X connect 143 0 144 0;
#X connect 143 0 146 0;
#X connect 143 1 150 0;
#X connect 143 1 310 0;
#X connect 143 2 151 0;
#X connect 143 2 345 0;
#X connect 143 3 152 0;
#X connect 143 3 153 0;
#X connect 143 4 331 0;
#X connect 143 4 332 0;
#X connect 143 5 324 0;
#X connect 143 5 328 0;
#X connect 143 6 330 0;
#X connect 143 6 329 0;
#X connect 143 7 154 0;
#X connect 143 7 155 0;
#X connect 143 8 156 0;
#X connect 143 8 157 0;
#X connect 144 0 145 0;
#X connect 145 0 149 0;
#X connect 146 0 148 0;
#X connect 147 0 143 0;
#X connect 150 0 145 0;
#X connect 151 0 145 0;
#X connect 152 0 145 0;
#X connect 153 0 148 0;
#X connect 154 0 145 0;
#X connect 155 0 148 0;
#X connect 156 0 145 0;
#X connect 157 0 148 0;
#X connect 158 0 159 0;
#X connect 158 0 161 0;
#X connect 158 1 162 0;
#X connect 158 1 311 0;
#X connect 158 2 163 0;
#X connect 158 2 164 0;
#X connect 158 3 165 0;
#X connect 158 3 166 0;
#X connect 158 4 333 0;
#X connect 158 4 321 0;
#X connect 158 5 325 0;
#X connect 158 5 339 0;
#X connect 158 6 336 0;
#X connect 158 6 342 0;
#X connect 158 7 167 0;
#X connect 158 7 168 0;
#X connect 158 8 169 0;
#X connect 158 8 170 0;
#X connect 159 0 160 0;
#X connect 160 0 172 0;
#X connect 161 0 173 0;
#X connect 162 0 160 0;
#X connect 163 0 160 0;
#X connect 164 0 173 0;
#X connect 165 0 160 0;
#X connect 166 0 173 0;
#X connect 167 0 160 0;
#X connect 168 0 173 0;
#X connect 169 0 160 0;
#X connect 170 0 173 0;
#X connect 171 0 158 0;
#X connect 174 0 175 0;
#X connect 174 0 177 0;
#X connect 174 1 178 0;
#X connect 174 1 312 0;
#X connect 174 2 179 0;
#X connect 174 2 180 0;
#X connect 174 3 181 0;
#X connect 174 3 182 0;
#X connect 174 4 334 0;
#X connect 174 4 322 0;
#X connect 174 5 326 0;
#X connect 174 5 340 0;
#X connect 174 6 337 0;
#X connect 174 6 343 0;
#X connect 174 7 183 0;
#X connect 174 7 184 0;
#X connect 174 8 185 0;
#X connect 174 8 186 0;
#X connect 175 0 176 0;
#X connect 176 0 188 0;
#X connect 177 0 189 0;
#X connect 178 0 176 0;
#X connect 179 0 176 0;
#X connect 180 0 189 0;
#X connect 181 0 176 0;
#X connect 182 0 189 0;
#X connect 183 0 176 0;
#X connect 184 0 189 0;
#X connect 185 0 176 0;
#X connect 186 0 189 0;
#X connect 187 0 174 0;
#X connect 190 0 191 0;
#X connect 190 0 193 0;
#X connect 190 1 194 0;
#X connect 190 1 313 0;
#X connect 190 2 195 0;
#X connect 190 2 196 0;
#X connect 190 3 197 0;
#X connect 190 3 198 0;
#X connect 190 4 335 0;
#X connect 190 4 323 0;
#X connect 190 5 327 0;
#X connect 190 5 341 0;
#X connect 190 6 338 0;
#X connect 190 6 344 0;
#X connect 190 7 199 0;
#X connect 190 7 200 0;
#X connect 190 8 201 0;
#X connect 190 8 202 0;
#X connect 191 0 192 0;
#X connect 192 0 204 0;
#X connect 193 0 205 0;
#X connect 194 0 192 0;
#X connect 195 0 192 0;
#X connect 196 0 205 0;
#X connect 197 0 192 0;
#X connect 198 0 205 0;
#X connect 199 0 192 0;
#X connect 200 0 205 0;
#X connect 201 0 192 0;
#X connect 202 0 205 0;
#X connect 203 0 190 0;
#X connect 206 0 208 0;
#X connect 209 0 207 0;
#X connect 210 0 212 0;
#X connect 213 0 211 0;
#X connect 214 0 216 0;
#X connect 217 0 215 0;
#X connect 218 0 220 0;
#X connect 221 0 219 0;
#X connect 222 0 223 0;
#X connect 224 0 206 0;
#X connect 224 0 210 0;
#X connect 224 0 214 0;
#X connect 224 0 218 0;
#X connect 225 0 34 1;
#X connect 225 0 230 0;
#X connect 226 0 225 0;
#X connect 226 0 227 0;
#X connect 226 0 228 0;
#X connect 227 0 31 0;
#X connect 228 0 225 0;
#X connect 229 0 226 0;
#X connect 231 0 32 0;
#X connect 232 0 225 0;
#X connect 233 0 234 0;
#X connect 235 0 99 1;
#X connect 236 0 110 1;
#X connect 237 0 104 1;
#X connect 238 0 107 1;
#X connect 239 0 346 0;
#X connect 240 0 87 0;
#X connect 241 0 87 0;
#X connect 242 0 87 0;
#X connect 243 0 87 0;
#X connect 244 0 248 0;
#X connect 245 0 248 0;
#X connect 246 0 248 0;
#X connect 247 0 248 0;
#X connect 249 0 250 0;
#X connect 251 0 239 0;
#X connect 253 0 252 0;
#X connect 255 0 257 0;
#X connect 256 0 258 0;
#X connect 258 0 2 0;
#X connect 259 0 4 0;
#X connect 260 0 259 0;
#X connect 261 0 262 0;
#X connect 264 0 315 0;
#X connect 266 0 21 0;
#X connect 267 0 22 0;
#X connect 268 0 23 0;
#X connect 269 0 27 0;
#X connect 270 0 30 0;
#X connect 271 0 41 0;
#X connect 272 0 42 0;
#X connect 273 0 43 0;
#X connect 282 0 274 0;
#X connect 282 0 306 0;
#X connect 283 0 275 0;
#X connect 283 0 307 0;
#X connect 284 0 276 0;
#X connect 284 0 308 0;
#X connect 285 0 277 0;
#X connect 285 0 309 0;
#X connect 288 0 278 0;
#X connect 295 0 279 0;
#X connect 296 0 280 0;
#X connect 297 0 281 0;
#X connect 298 0 286 0;
#X connect 299 0 287 0;
#X connect 300 0 289 0;
#X connect 301 0 291 0;
#X connect 302 0 293 0;
#X connect 303 0 290 0;
#X connect 304 0 292 0;
#X connect 305 0 294 0;
#X connect 310 0 148 0;
#X connect 311 0 173 0;
#X connect 312 0 189 0;
#X connect 313 0 205 0;
#X connect 314 0 264 0;
#X connect 315 0 282 0;
#X connect 315 0 283 0;
#X connect 315 0 284 0;
#X connect 315 0 285 0;
#X connect 316 0 282 0;
#X connect 317 0 283 0;
#X connect 318 0 284 0;
#X connect 319 0 285 0;
#X connect 320 0 233 0;
#X connect 321 0 173 0;
#X connect 322 0 189 0;
#X connect 323 0 205 0;
#X connect 324 0 145 0;
#X connect 325 0 160 0;
#X connect 326 0 176 0;
#X connect 327 0 192 0;
#X connect 328 0 148 0;
#X connect 329 0 148 0;
#X connect 330 0 145 0;
#X connect 331 0 145 0;
#X connect 332 0 148 0;
#X connect 333 0 160 0;
#X connect 334 0 176 0;
#X connect 335 0 192 0;
#X connect 336 0 160 0;
#X connect 337 0 176 0;
#X connect 338 0 192 0;
#X connect 339 0 173 0;
#X connect 340 0 189 0;
#X connect 341 0 205 0;
#X connect 342 0 173 0;
#X connect 343 0 189 0;
#X connect 344 0 205 0;
#X connect 345 0 148 0;
#X connect 346 0 240 0;
#X connect 346 0 244 0;
#X connect 346 1 243 0;
#X connect 346 1 247 0;
#X connect 346 2 242 0;
#X connect 346 2 246 0;
#X connect 346 3 241 0;
#X connect 346 3 245 0;
#X connect 346 4 347 0;
#X connect 346 4 348 0;
#X connect 347 0 248 0;
#X connect 348 0 87 0;
#X coords 0 0 630 365 630 365 1 0 0;
